<?xml version="1.0" encoding="UTF-8"?>
<svg id="Layer_1" xmlns="http://www.w3.org/2000/svg" version="1.1" viewBox="0 0 40 40">
  <!-- Generator: Adobe Illustrator 29.8.1, SVG Export Plug-In . SVG Version: 2.1.1 Build 2)  -->
  <defs>
    <style>
      .st0 {
        fill: #fff;
      }
    </style>
  </defs>
  <path class="st0" d="M22.47,9.76c.04.05.88.22,1.21.4,2.64,1.46,4.67,4.08,4.98,7.16.18,1.82-.22,3.68.16,5.53.52,2.56,3.65,4.26,3.05,7.34-.46,2.4-5.42.88-7.01,1.41-.44.14-.57.94-.91,1.32-2.84,3.27-7.02,2.57-8.57-1.38-3.6-.09-9.33,1.3-6.64-4.42.57-1.21,2.18-2.71,2.47-3.97.37-1.58-.04-3.67.11-5.34.33-3.77,2.66-7.16,6.44-8.06-3.11-4.42,4.73-7.03,5.19-2.07.07.75-.55,1.99-.48,2.07h0ZM21.17,6.85c-1.36-1.36-3.79.96-2.06,2.19,1.53,1.09,3.18-1.08,2.06-2.19ZM9.96,30.08h20.07c.16,0,.35-.42.38-.63.26-1.71-2.84-4.22-3.17-6.25-.28-1.67.09-3.67-.06-5.39-.84-9.14-13.36-9.31-14.33.03-.3,2.88.56,4.67-.97,7.45-.35.63-3.46,4.31-1.91,4.78h0ZM22.97,31.56h-5.95c1.07,2.54,4.91,2.68,5.95,0Z"/>
</svg>