<?xml version="1.0" encoding="UTF-8"?>
<svg id="Layer_1" xmlns="http://www.w3.org/2000/svg" version="1.1" viewBox="0 0 40 40">
  <!-- Generator: Adobe Illustrator 29.8.1, SVG Export Plug-In . SVG Version: 2.1.1 Build 2)  -->
  <defs>
    <style>
      .st0 {
        fill: #fff;
      }
    </style>
  </defs>
  <path class="st0" d="M28.2,37.4H4.55c-1.13,0-2.05-.92-2.05-2.05V11.7c0-1.13.92-2.05,2.05-2.05h23.64c1.13,0,2.05.92,2.05,2.05v23.64c0,1.13-.92,2.05-2.05,2.05ZM5.17,34.73h22.41V12.32H5.17v22.41Z"/>
  <path class="st0" d="M35.45,2.6H11.81c-1.13,0-2.05.92-2.05,2.05v.61h23.03s.08,0,.13,0h1.92v1.92s0,.08,0,.13v23.03h.61c1.13,0,2.05-.92,2.05-2.05V4.65c0-1.13-.92-2.05-2.05-2.05Z"/>
</svg>