<?xml version="1.0" encoding="UTF-8"?>
<svg id="Layer_1" xmlns="http://www.w3.org/2000/svg" version="1.1" viewBox="0 0 40 40">
  <!-- Generator: Adobe Illustrator 29.8.1, SVG Export Plug-In . SVG Version: 2.1.1 Build 2)  -->
  <defs>
    <style>
      .st0 {
        fill: #fff;
      }
    </style>
  </defs>
  <path class="st0" d="M7.8,7.3l8.45-.03c1.76,1.32,3.18,3.18,4.81,4.66l10.86.08c.8.55,2.09,1.34,2.21,2.36-.36,5.04.46,10.71,0,15.68-.09.94-1.59,2.58-2.53,2.69l-23.76-.08c-.59-.46-2.03-1.59-2.12-2.29V9.62c.1-.73,1.54-1.76,2.08-2.32ZM32.99,16.57c.07-1.55.23-2.56-1.31-3.34l-10.97-.12c-1.85-1.29-3.22-3.22-4.96-4.67l-7.31-.03c-.26.05-1.55,1.28-1.55,1.38v6.77h3.02c.48,0,.37,1.14.24,1.14h-3.26v12.49c0,.12,1.48,1.62,1.87,1.4h22.37c.41.16,1.87-1.28,1.87-1.4v-12.49H13.65c-.28,0-.48-1.14.16-1.14h19.18Z"/>
</svg>