<?xml version="1.0" encoding="UTF-8"?>
<svg id="Layer_1" xmlns="http://www.w3.org/2000/svg" version="1.1" viewBox="0 0 40 40">
  <!-- Generator: Adobe Illustrator 29.8.2, SVG Export Plug-In . SVG Version: 2.1.1 Build 3)  -->
  <defs>
    <style>
      .st0 {
        fill: #fff;
      }
    </style>
  </defs>
  <path class="st0" d="M20.44,9.98c-.08.08-.38.53-.46.51-1.59-2.07-4.13-3.23-6.75-3.06-3.86.26-7.04,3.27-7.22,7.19-.3,6.42,5.59,9.69,9.63,13.5,1.44,1.36,2.79,2.83,3.94,4.45l.81.02c.49-.59.9-1.24,1.38-1.83,1.17-1.44,2.58-2.77,3.96-4.01,3.49-3.13,7.95-6.05,8.25-11.24.43-7.34-8.6-10.83-13.54-5.53ZM23.47,26.63c-1.26,1.18-2.42,2.46-3.51,3.81h0s-.01.01-.01.01h.01c0-.06-.02-.09-.05-.12-1.45-1.77-3.05-3.3-4.76-4.8-3.28-2.88-7.36-5.45-7.51-10.3-.18-5.84,7.13-8.35,10.84-4.03.64.75.9,1.63,1.41,2.41.03.05.06.13.13.11.09-.02.78-1.46.92-1.69,3.31-5.5,12.02-2.94,11.41,3.67-.44,4.71-5.7,7.93-8.88,10.93Z"/>
  <path class="st0" d="M32.35,15.7c-.44,4.71-5.7,7.93-8.88,10.93-1.26,1.18-2.42,2.46-3.51,3.81,0-.05-.02-.08-.05-.11-1.45-1.77-3.05-3.3-4.76-4.8-3.28-2.88-7.36-5.45-7.51-10.3-.18-5.84,7.13-8.35,10.84-4.03.64.75.9,1.63,1.41,2.41.03.05.06.13.13.11.09-.02.78-1.46.92-1.69,3.31-5.5,12.02-2.94,11.41,3.67Z"/>
</svg>