<?xml version="1.0" encoding="UTF-8"?>
<svg id="Layer_1" xmlns="http://www.w3.org/2000/svg" version="1.1" viewBox="0 0 40 40">
  <!-- Generator: Adobe Illustrator 29.8.2, SVG Export Plug-In . SVG Version: 2.1.1 Build 3)  -->
  <defs>
    <style>
      .st0 {
        fill: #fff;
      }
    </style>
  </defs>
  <path class="st0" d="M25.51,13.31c-.67,0-1.22.55-1.22,1.22s.55,1.22,1.22,1.22,1.22-.55,1.22-1.22-.55-1.22-1.22-1.22Z"/>
  <path class="st0" d="M20.09,14.87c-2.83,0-5.13,2.3-5.13,5.13s2.3,5.13,5.13,5.13,5.13-2.3,5.13-5.13-2.3-5.13-5.13-5.13ZM20.09,23.28c-1.81,0-3.28-1.47-3.28-3.28s1.47-3.28,3.28-3.28,3.28,1.47,3.28,3.28-1.47,3.28-3.28,3.28Z"/>
  <path class="st0" d="M24.16,30.41h-8.31c-3.45,0-6.25-2.8-6.25-6.25v-8.31c0-3.45,2.8-6.25,6.25-6.25h8.31c3.45,0,6.25,2.8,6.25,6.25v8.31c0,3.45-2.81,6.25-6.25,6.25ZM15.84,11.55c-2.37,0-4.29,1.93-4.29,4.29v8.31c0,2.37,1.93,4.29,4.29,4.29h8.31c2.37,0,4.29-1.93,4.29-4.29v-8.31c0-2.37-1.93-4.29-4.29-4.29h-8.31Z"/>
</svg>