<?xml version="1.0" encoding="UTF-8"?>
<svg id="Layer_1" xmlns="http://www.w3.org/2000/svg" version="1.1" viewBox="0 0 60 60">
  <!-- Generator: Adobe Illustrator 29.8.1, SVG Export Plug-In . SVG Version: 2.1.1 Build 2)  -->
  <defs>
    <style>
      .st0 {
        fill: #c5c5c5;
      }

      .st1 {
        fill: #fff;
      }

      .st2 {
        fill: #d6d6d6;
      }
    </style>
  </defs>
  <path class="st2" d="M22.66,55.33c-.47,0-.86-.38-.86-.86v-1.59h-8.93c-.47,0-.86-.38-.86-.86v-24.47c0-.47.38-.86.86-.86h6.48v-1.59c0-.47.38-.86.86-.86h1.59v-1.59c0-.47.38-.86.86-.86h1.59v-4.03c0-.47.38-.86.86-.86h1.59V5.53c0-.47.38-.86.86-.86h7.34c.47,0,.86.38.86.86v1.59h1.59c.47,0,.86.38.86.86v13.82h16.27c.47,0,.86.38.86.86v1.59h1.59c.47,0,.86.38.86.86v22.02c0,.47-.38.86-.86.86h-1.59v4.03c0,.47-.38.86-.86.86h-1.59v1.59c0,.47-.38.86-.86.86h-29.36Z"/>
  <rect class="st0" x="-7.56" y="34.03" width="31.08" height="11.51" rx="4" ry="4" transform="translate(47.77 31.81) rotate(90)"/>
  <g>
    <rect class="st1" x="12.87" y="49.57" width="2.45" height="2.45" rx="1.22" ry="1.22"/>
    <rect class="st1" x="15.32" y="49.57" width="2.45" height="2.45" rx="1.22" ry="1.22"/>
    <rect class="st1" x="17.77" y="49.57" width="2.45" height="2.45" rx="1.22" ry="1.22"/>
    <rect class="st1" x="17.77" y="47.13" width="2.45" height="2.45" rx="1.22" ry="1.22"/>
    <rect class="st1" x="20.21" y="49.57" width="2.45" height="2.45" rx="1.22" ry="1.22"/>
    <rect class="st1" x="22.66" y="52.02" width="2.45" height="2.45" rx="1.22" ry="1.22"/>
    <rect class="st1" x="25.11" y="52.02" width="2.45" height="2.45" rx="1.22" ry="1.22"/>
    <rect class="st1" x="27.55" y="52.02" width="2.45" height="2.45" rx="1.22" ry="1.22"/>
    <rect class="st1" x="30" y="52.02" width="2.45" height="2.45" rx="1.22" ry="1.22"/>
    <rect class="st1" x="32.45" y="52.02" width="2.45" height="2.45" rx="1.22" ry="1.22"/>
    <rect class="st1" x="34.89" y="52.02" width="2.45" height="2.45" rx="1.22" ry="1.22"/>
    <rect class="st1" x="37.34" y="52.02" width="2.45" height="2.45" rx="1.22" ry="1.22"/>
    <rect class="st1" x="37.34" y="49.57" width="2.45" height="2.45" rx="1.22" ry="1.22"/>
    <rect class="st1" x="37.34" y="47.13" width="2.45" height="2.45" rx="1.22" ry="1.22"/>
    <rect class="st1" x="37.34" y="42.23" width="2.45" height="2.45" rx="1.22" ry="1.22"/>
    <rect class="st1" x="37.34" y="39.79" width="2.45" height="2.45" rx="1.22" ry="1.22"/>
    <rect class="st1" x="37.34" y="37.34" width="2.45" height="2.45" rx="1.22" ry="1.22"/>
    <rect class="st1" x="37.34" y="34.89" width="2.45" height="2.45" rx="1.22" ry="1.22"/>
    <rect class="st1" x="34.89" y="37.34" width="2.45" height="2.45" rx="1.22" ry="1.22"/>
    <rect class="st1" x="34.89" y="34.89" width="2.45" height="2.45" rx="1.22" ry="1.22"/>
    <rect class="st1" x="32.45" y="39.79" width="2.45" height="2.45" rx="1.22" ry="1.22"/>
    <rect class="st1" x="32.45" y="37.34" width="2.45" height="2.45" rx="1.22" ry="1.22"/>
    <rect class="st1" x="30" y="42.23" width="2.45" height="2.45" rx="1.22" ry="1.22"/>
    <rect class="st1" x="27.55" y="42.23" width="2.45" height="2.45" rx="1.22" ry="1.22"/>
    <rect class="st1" x="25.11" y="42.23" width="2.45" height="2.45" rx="1.22" ry="1.22"/>
    <rect class="st1" x="22.66" y="42.23" width="2.45" height="2.45" rx="1.22" ry="1.22"/>
    <rect class="st1" x="30" y="39.79" width="2.45" height="2.45" rx="1.22" ry="1.22"/>
    <rect class="st1" x="37.34" y="32.45" width="2.45" height="2.45" rx="1.22" ry="1.22"/>
    <rect class="st1" x="37.34" y="30" width="2.45" height="2.45" rx="1.22" ry="1.22"/>
    <rect class="st1" x="37.34" y="27.55" width="2.45" height="2.45" rx="1.22" ry="1.22"/>
    <rect class="st1" x="37.34" y="25.11" width="2.45" height="2.45" rx="1.22" ry="1.22"/>
    <rect class="st1" x="37.34" y="22.66" width="2.45" height="2.45" rx="1.22" ry="1.22"/>
    <rect class="st1" x="34.89" y="22.66" width="2.45" height="2.45" rx="1.22" ry="1.22"/>
    <rect class="st1" x="34.89" y="20.21" width="2.45" height="2.45" rx="1.22" ry="1.22"/>
    <rect class="st1" x="34.89" y="17.77" width="2.45" height="2.45" rx="1.22" ry="1.22"/>
    <rect class="st1" x="34.89" y="15.32" width="2.45" height="2.45" rx="1.22" ry="1.22"/>
    <rect class="st1" x="34.89" y="12.87" width="2.45" height="2.45" rx="1.22" ry="1.22"/>
    <rect class="st1" x="34.89" y="10.43" width="2.45" height="2.45" rx="1.22" ry="1.22"/>
    <rect class="st1" x="34.89" y="7.98" width="2.45" height="2.45" rx="1.22" ry="1.22"/>
    <rect class="st1" x="32.45" y="5.53" width="2.45" height="2.45" rx="1.22" ry="1.22"/>
    <rect class="st1" x="30" y="5.53" width="2.45" height="2.45" rx="1.22" ry="1.22"/>
    <rect class="st1" x="27.55" y="5.53" width="2.45" height="2.45" rx="1.22" ry="1.22"/>
    <rect class="st1" x="27.55" y="7.98" width="2.45" height="2.45" rx="1.22" ry="1.22"/>
    <rect class="st1" x="27.55" y="10.43" width="2.45" height="2.45" rx="1.22" ry="1.22"/>
    <rect class="st1" x="27.55" y="12.87" width="2.45" height="2.45" rx="1.22" ry="1.22"/>
    <rect class="st1" x="27.55" y="15.32" width="2.45" height="2.45" rx="1.22" ry="1.22"/>
    <rect class="st1" x="25.11" y="17.77" width="2.45" height="2.45" rx="1.22" ry="1.22"/>
    <rect class="st1" x="25.11" y="20.21" width="2.45" height="2.45" rx="1.22" ry="1.22"/>
    <rect class="st1" x="22.66" y="22.66" width="2.45" height="2.45" rx="1.22" ry="1.22"/>
    <rect class="st1" x="20.21" y="25.11" width="2.45" height="2.45" rx="1.22" ry="1.22"/>
    <rect class="st1" x="17.77" y="27.55" width="2.45" height="2.45" rx="1.22" ry="1.22"/>
    <rect class="st1" x="15.32" y="27.55" width="2.45" height="2.45" rx="1.22" ry="1.22"/>
    <rect class="st1" x="12.87" y="27.55" width="2.45" height="2.45" rx="1.22" ry="1.22"/>
    <rect class="st1" x="10.43" y="25.11" width="2.45" height="2.45" rx="1.22" ry="1.22"/>
    <rect class="st1" x="7.98" y="25.11" width="2.45" height="2.45" rx="1.22" ry="1.22"/>
    <rect class="st1" x="5.53" y="25.11" width="2.45" height="2.45" rx="1.22" ry="1.22"/>
    <rect class="st1" x="7.98" y="52.02" width="2.45" height="2.45" rx="1.22" ry="1.22"/>
    <rect class="st1" x="5.53" y="52.02" width="2.45" height="2.45" rx="1.22" ry="1.22"/>
    <rect class="st1" x="3.09" y="25.11" width="2.45" height="2.45" rx="1.22" ry="1.22"/>
    <rect class="st1" x="10.43" y="27.55" width="2.45" height="2.45" rx="1.22" ry="1.22"/>
    <rect class="st1" x="10.43" y="30" width="2.45" height="2.45" rx="1.22" ry="1.22"/>
    <rect class="st1" x="10.43" y="32.45" width="2.45" height="2.45" rx="1.22" ry="1.22"/>
    <rect class="st1" x="10.43" y="34.89" width="2.45" height="2.45" rx="1.22" ry="1.22"/>
    <rect class="st1" x="10.43" y="37.34" width="2.45" height="2.45" rx="1.22" ry="1.22"/>
    <rect class="st1" x="10.43" y="39.79" width="2.45" height="2.45" rx="1.22" ry="1.22"/>
    <rect class="st1" x="10.43" y="42.23" width="2.45" height="2.45" rx="1.22" ry="1.22"/>
    <rect class="st1" x="10.43" y="44.68" width="2.45" height="2.45" rx="1.22" ry="1.22"/>
    <rect class="st1" x="10.43" y="47.13" width="2.45" height="2.45" rx="1.22" ry="1.22"/>
    <rect class="st1" x="10.43" y="49.57" width="2.45" height="2.45" rx="1.22" ry="1.22"/>
    <rect class="st1" x="10.43" y="52.02" width="2.45" height="2.45" rx="1.22" ry="1.22"/>
    <rect class="st1" x="3.09" y="27.55" width="2.45" height="2.45" rx="1.22" ry="1.22"/>
    <rect class="st1" x="3.09" y="30" width="2.45" height="2.45" rx="1.22" ry="1.22"/>
    <rect class="st1" x="3.09" y="32.45" width="2.45" height="2.45" rx="1.22" ry="1.22"/>
    <rect class="st1" x="3.09" y="34.89" width="2.45" height="2.45" rx="1.22" ry="1.22"/>
    <rect class="st1" x="3.09" y="37.34" width="2.45" height="2.45" rx="1.22" ry="1.22"/>
    <rect class="st1" x="3.09" y="39.79" width="2.45" height="2.45" rx="1.22" ry="1.22"/>
    <rect class="st1" x="3.09" y="42.23" width="2.45" height="2.45" rx="1.22" ry="1.22"/>
    <rect class="st1" x="3.09" y="44.68" width="2.45" height="2.45" rx="1.22" ry="1.22"/>
    <rect class="st1" x="3.09" y="47.13" width="2.45" height="2.45" rx="1.22" ry="1.22"/>
    <rect class="st1" x="3.09" y="49.57" width="2.45" height="2.45" rx="1.22" ry="1.22"/>
    <rect class="st1" x="3.09" y="52.02" width="2.45" height="2.45" rx="1.22" ry="1.22"/>
    <rect class="st1" x="39.79" y="22.66" width="2.45" height="2.45" rx="1.22" ry="1.22"/>
    <rect class="st1" x="42.23" y="22.66" width="2.45" height="2.45" rx="1.22" ry="1.22"/>
    <rect class="st1" x="44.68" y="22.66" width="2.45" height="2.45" rx="1.22" ry="1.22"/>
    <rect class="st1" x="47.13" y="22.66" width="2.45" height="2.45" rx="1.22" ry="1.22"/>
    <rect class="st1" x="49.57" y="22.66" width="2.45" height="2.45" rx="1.22" ry="1.22"/>
    <rect class="st1" x="52.02" y="22.66" width="2.45" height="2.45" rx="1.22" ry="1.22"/>
    <rect class="st1" x="39.79" y="30" width="2.45" height="2.45" rx="1.22" ry="1.22"/>
    <rect class="st1" x="42.23" y="30" width="2.45" height="2.45" rx="1.22" ry="1.22"/>
    <rect class="st1" x="44.68" y="30" width="2.45" height="2.45" rx="1.22" ry="1.22"/>
    <rect class="st1" x="47.13" y="30" width="2.45" height="2.45" rx="1.22" ry="1.22"/>
    <rect class="st1" x="49.57" y="30" width="2.45" height="2.45" rx="1.22" ry="1.22"/>
    <rect class="st1" x="52.02" y="30" width="2.45" height="2.45" rx="1.22" ry="1.22"/>
    <rect class="st1" x="39.79" y="37.34" width="2.45" height="2.45" rx="1.22" ry="1.22"/>
    <rect class="st1" x="42.23" y="37.34" width="2.45" height="2.45" rx="1.22" ry="1.22"/>
    <rect class="st1" x="44.68" y="37.34" width="2.45" height="2.45" rx="1.22" ry="1.22"/>
    <rect class="st1" x="47.13" y="37.34" width="2.45" height="2.45" rx="1.22" ry="1.22"/>
    <rect class="st1" x="49.57" y="37.34" width="2.45" height="2.45" rx="1.22" ry="1.22"/>
    <rect class="st1" x="52.02" y="37.34" width="2.45" height="2.45" rx="1.22" ry="1.22"/>
    <rect class="st1" x="39.79" y="44.68" width="2.45" height="2.45" rx="1.22" ry="1.22"/>
    <rect class="st1" x="42.23" y="44.68" width="2.45" height="2.45" rx="1.22" ry="1.22"/>
    <rect class="st1" x="44.68" y="44.68" width="2.45" height="2.45" rx="1.22" ry="1.22"/>
    <rect class="st1" x="47.13" y="44.68" width="2.45" height="2.45" rx="1.22" ry="1.22"/>
    <rect class="st1" x="49.57" y="44.68" width="2.45" height="2.45" rx="1.22" ry="1.22"/>
    <rect class="st1" x="52.02" y="44.68" width="2.45" height="2.45" rx="1.22" ry="1.22"/>
    <rect class="st1" x="54.47" y="44.68" width="2.45" height="2.45" rx="1.22" ry="1.22"/>
    <rect class="st1" x="54.47" y="42.23" width="2.45" height="2.45" rx="1.22" ry="1.22"/>
    <rect class="st1" x="54.47" y="39.79" width="2.45" height="2.45" rx="1.22" ry="1.22"/>
    <rect class="st1" x="54.47" y="37.34" width="2.45" height="2.45" rx="1.22" ry="1.22"/>
    <rect class="st1" x="54.47" y="34.89" width="2.45" height="2.45" rx="1.22" ry="1.22"/>
    <rect class="st1" x="54.47" y="32.45" width="2.45" height="2.45" rx="1.22" ry="1.22"/>
    <rect class="st1" x="54.47" y="30" width="2.45" height="2.45" rx="1.22" ry="1.22"/>
    <rect class="st1" x="54.47" y="27.55" width="2.45" height="2.45" rx="1.22" ry="1.22"/>
    <rect class="st1" x="54.47" y="25.11" width="2.45" height="2.45" rx="1.22" ry="1.22"/>
    <rect class="st1" x="39.79" y="52.02" width="2.45" height="2.45" rx="1.22" ry="1.22"/>
    <rect class="st1" x="42.23" y="52.02" width="2.45" height="2.45" rx="1.22" ry="1.22"/>
    <rect class="st1" x="44.68" y="52.02" width="2.45" height="2.45" rx="1.22" ry="1.22"/>
    <rect class="st1" x="47.13" y="52.02" width="2.45" height="2.45" rx="1.22" ry="1.22"/>
    <rect class="st1" x="49.57" y="52.02" width="2.45" height="2.45" rx="1.22" ry="1.22"/>
    <rect class="st1" x="52.02" y="49.57" width="2.45" height="2.45" rx="1.22" ry="1.22"/>
    <rect class="st1" x="52.02" y="47.13" width="2.45" height="2.45" rx="1.22" ry="1.22"/>
  </g>
</svg>