<?xml version="1.0" encoding="UTF-8"?>
<svg id="Layer_1" xmlns="http://www.w3.org/2000/svg" version="1.1" viewBox="0 0 40 40">
  <!-- Generator: Adobe Illustrator 29.8.1, SVG Export Plug-In . SVG Version: 2.1.1 Build 2)  -->
  <defs>
    <style>
      .st0 {
        fill: #fff;
      }
    </style>
  </defs>
  <path class="st0" d="M34,12.43v12.96c-.3,1.47-1.42,2.46-2.92,2.57-2.17.16-4.56-.16-6.73,0-1.73.12-2.94,1.35-4.36,2.18-1.31-.82-2.48-1.92-4.07-2.16-2.18-.33-4.75.15-6.99-.01-1.5-.11-2.63-1.1-2.92-2.57v-12.96c.3-1.34,1.33-2.35,2.71-2.51,2.24.09,4.6-.14,6.83,0,1.73.1,3.1.82,4.47,1.8,1.35-1.02,2.77-1.7,4.49-1.8,2.19-.12,4.48.09,6.68,0,1.43.11,2.5,1.15,2.81,2.52h0v-.02ZM8.83,11.95c-.35.08-.61.28-.75.61l-.05,12.53c.11.53.49.8,1.01.85,2.82.24,6.44-.56,9.03.59.7.31,1.28.83,1.96,1.16.63-.37,1.2-.84,1.87-1.14,2.69-1.21,6.24-.32,9.12-.61.45-.05.78-.28.93-.71l.03-12.39c-.03-.51-.46-.87-.96-.9-2.12.11-4.36-.13-6.46,0-1.91.12-3.03,1.28-4.58,2.18-1.51-.93-2.67-2.06-4.55-2.18-2.14-.14-4.45.1-6.61.02h0Z"/>
  <polygon class="st0" points="18.03 15.92 18.03 17.87 17.95 17.95 9.99 17.95 9.99 15.92 18.03 15.92"/>
  <polygon class="st0" points="30.01 15.92 30.01 17.95 22.05 17.95 21.97 17.87 21.97 15.92 30.01 15.92"/>
  <polygon class="st0" points="18.03 19.92 18.03 21.86 17.95 21.94 9.99 21.94 9.99 19.92 18.03 19.92"/>
  <polygon class="st0" points="30.01 19.92 30.01 21.94 22.05 21.94 21.97 21.86 21.97 19.92 30.01 19.92"/>
</svg>