<?xml version="1.0" encoding="UTF-8"?>
<svg id="Layer_1" xmlns="http://www.w3.org/2000/svg" version="1.1" viewBox="0 0 40 40">
  <!-- Generator: Adobe Illustrator 29.8.1, SVG Export Plug-In . SVG Version: 2.1.1 Build 2)  -->
  <defs>
    <style>
      .st0 {
        fill: #fff;
      }
    </style>
  </defs>
  <path class="st0" d="M29.67,6.93c.81.68,3.59,3.34,4.01,4.12.14.25.24.54.32.81l-.11,20.31c-.34.99-1.26,1.76-2.33,1.83l-23.73-.12c-.99-.34-1.76-1.26-1.83-2.33l.12-23.73c.28-.92,1.04-1.44,1.92-1.74l19.84-.09c.76.09,1.22.47,1.78.94h0ZM12.19,6.88h-3.85c-.45,0-1.28.79-1.39,1.26l-.06,23.4c-.14.52.96,1.58,1.32,1.58h2.46v-9.15c0-.06.33-.75.4-.86.34-.52.81-.79,1.42-.85,4.77-.46,10.29.36,15.15,0,.6-.11,1.7,1.17,1.7,1.58v9.27h2.46c.39,0,1.4-1.07,1.33-1.57V12.12c-.07-.42-.31-.76-.57-1.08-.52-.66-2.99-3.16-3.65-3.66-.28-.21-.72-.43-1.08-.51v6.37c0,.81-1.25,2.11-2.09,2.2-3.57-.18-7.43.27-10.97.02-.98-.07-1.84-.47-2.27-1.38-.06-.14-.31-.75-.31-.83v-6.37h0ZM26.94,6.88h-13.88v6.24c0,.55.84,1.45,1.46,1.44,3.48-.23,7.42.34,10.84.02.67-.06,1.57-.76,1.57-1.46v-6.24h.01ZM28.46,33.12v-9.02c0-.35-.64-1.01-1.07-.95-4.71.33-10-.43-14.64,0-.49.05-1.19.4-1.19.95v9.02h16.9Z"/>
  <path class="st0" d="M13.51,25.04h12.99c.37,0,.37.88,0,.88h-12.99c-.29,0-.45-.73,0-.88Z"/>
  <path class="st0" d="M26.69,29.84h-13.37l-.07-.63c.21-.22.47-.23.76-.26,3.85-.35,8.21.27,12.12,0,.64.07.81.27.56.89h0Z"/>
  <path class="st0" d="M26.69,27.06l-.03.73c-.24.17-.51.14-.78.16-3.88.27-8.08-.21-11.99,0-.63-.07-.76-.27-.57-.88h13.37Z"/>
  <path class="st0" d="M24.36,30.97l.26.52-.52.35c-2.57-.09-5.27.17-7.82.02-.72-.04-1.14-.12-.63-.89h8.71Z"/>
  <path class="st0" d="M18.81,8.39h2.4l.19.19v4.29l-.19.19h-2.4l-.19-.19v-4.29l.19-.19ZM20.51,9.28h-1.01v2.9h1.01v-2.9Z"/>
</svg>