<?xml version="1.0" encoding="UTF-8"?>
<svg id="Layer_1" xmlns="http://www.w3.org/2000/svg" version="1.1" viewBox="0 0 40 40">
  <!-- Generator: Adobe Illustrator 29.8.1, SVG Export Plug-In . SVG Version: 2.1.1 Build 2)  -->
  <defs>
    <style>
      .st0 {
        fill: #818385;
      }
    </style>
  </defs>
  <path class="st0" d="M13.23,7.43c2.62-.17,5.16.99,6.75,3.06.08.02.38-.43.46-.51,4.94-5.3,13.97-1.81,13.54,5.53-.3,5.19-4.76,8.11-8.25,11.24-1.38,1.24-2.79,2.57-3.96,4.01-.48.59-.89,1.24-1.38,1.83l-.81-.02c-1.15-1.62-2.5-3.09-3.94-4.45-4.04-3.81-9.93-7.08-9.63-13.5.18-3.92,3.36-6.93,7.22-7.19h0ZM19.95,30.45c1.09-1.35,2.26-2.64,3.52-3.82,3.18-3,8.44-6.22,8.88-10.93.61-6.61-8.1-9.17-11.41-3.67-.14.23-.83,1.67-.92,1.69-.07.02-.1-.06-.13-.11-.51-.78-.77-1.66-1.41-2.41-3.71-4.32-11.02-1.81-10.84,4.03.15,4.85,4.23,7.42,7.51,10.3,1.71,1.5,3.31,3.03,4.76,4.8.03.03.05.07.05.12h0Z"/>
</svg>