<?xml version="1.0" encoding="UTF-8"?>
<svg id="Layer_1" xmlns="http://www.w3.org/2000/svg" version="1.1" viewBox="0 0 180 60">
  <!-- Generator: Adobe Illustrator 29.8.1, SVG Export Plug-In . SVG Version: 2.1.1 Build 2)  -->
  <defs>
    <style>
      .st0 {
        fill: #33bdd4;
      }

      .st1 {
        fill: #231f20;
      }

      .st2 {
        fill: #284e5e;
      }

      .st3 {
        fill: #f3da4e;
      }
    </style>
  </defs>
  <g>
    <g>
      <path class="st0" d="M12.26,35.09V9.72h3.97v-3.88h13.7v3.88h4.01v13.79h-4.01v3.88h-11.94v7.71h-5.72ZM17.98,21.21h10.18v-9.19h-10.18v9.19Z"/>
      <path class="st0" d="M39.43,12.02v-6.17h5.72v6.17h-5.72ZM39.43,35.09V13.55h5.72v21.54h-5.72Z"/>
      <path class="st0" d="M50.65,35.09v-6.13h3.97v-3.88h3.97v-1.58h-3.97v-3.83h-3.97v-6.13h5.72v3.88h3.97v3.79h2.25v-3.79h3.97v-3.88h5.77v6.13h-4.01v3.83h-3.97v1.58h3.97v3.88h4.01v6.13h-5.77v-3.83h-3.97v-3.88h-2.25v3.88h-3.97v3.83h-5.72Z"/>
      <path class="st0" d="M79.54,35.09v-3.83h-3.97v-13.84h3.97v-3.88h13.7v3.88h4.01v6.08h-5.77v-3.83h-10.18v1.53h7.98v6.17h-7.98v1.58h10.18v-3.92h5.77v6.17h-4.01v3.88h-13.7Z"/>
      <path class="st0" d="M102.75,35.09V5.84h5.72v29.25h-5.72Z"/>
    </g>
    <g>
      <path class="st1" d="M21.9,38.75c.71,0,1.37.13,2,.41.63.27,1.17.64,1.62,1.1.46.46.82,1.01,1.09,1.62.27.62.41,1.28.41,1.99v.56c0,.71-.14,1.37-.41,2-.27.63-.64,1.17-1.1,1.64-.47.46-1.01.83-1.62,1.1-.62.27-1.28.41-1.99.41h-5.33v-2.87h5.33c.32,0,.61-.06.89-.18.27-.12.51-.28.71-.48.2-.2.36-.44.48-.72.12-.28.18-.58.18-.9v-.56c0-.32-.06-.61-.18-.89-.12-.27-.28-.51-.48-.71-.2-.2-.44-.36-.71-.48-.27-.12-.57-.18-.89-.18h-6.62v11.71h-2.85v-14.58h9.48Z"/>
      <path class="st1" d="M40.13,42.52v2.85h-5.87c-.31,0-.6.06-.87.18-.28.12-.52.28-.73.49-.21.21-.37.45-.49.72-.12.27-.18.57-.18.89v5.69h-2.85v-5.69c0-.71.14-1.37.41-2,.27-.63.64-1.17,1.09-1.62s1-.82,1.62-1.09c.62-.27,1.29-.41,2-.41h5.87Z"/>
      <path class="st1" d="M49.67,42.52c.71,0,1.37.14,2,.41.62.27,1.17.64,1.62,1.09s.82,1,1.09,1.62.41,1.29.41,2v.56c0,.71-.14,1.38-.41,2-.27.62-.64,1.17-1.09,1.62s-1,.82-1.62,1.09c-.63.27-1.29.41-2,.41h-2.94c-.71,0-1.37-.14-2-.41-.62-.27-1.17-.64-1.62-1.09s-.82-1-1.09-1.62c-.27-.63-.41-1.29-.41-2v-.56c0-.71.14-1.37.41-2,.27-.63.64-1.17,1.09-1.62s1-.82,1.62-1.09c.63-.27,1.29-.41,2-.41h2.94ZM51.94,47.64c0-.32-.06-.61-.18-.89-.12-.27-.28-.51-.49-.72-.21-.21-.45-.37-.72-.49-.27-.12-.57-.18-.89-.18h-2.94c-.31,0-.6.06-.87.18-.28.12-.52.28-.73.49-.21.21-.37.45-.49.72-.12.27-.18.57-.18.89v.56c0,.31.06.6.18.87.12.28.28.52.49.73.21.21.45.37.73.49.28.12.57.18.87.18h2.94c.32,0,.61-.06.89-.18.27-.12.51-.28.72-.49.21-.21.37-.45.49-.73.12-.28.18-.57.18-.87v-.56Z"/>
      <path class="st1" d="M57.06,53.33v-5.69c0-.71.14-1.37.41-2,.27-.63.64-1.17,1.09-1.62s1-.82,1.62-1.09c.62-.27,1.29-.41,2-.41h2.48c.71,0,1.38.14,2.01.41.63.27,1.19.66,1.68,1.18.49-.51,1.05-.91,1.69-1.18.64-.27,1.31-.41,2.02-.41h2.46c.71,0,1.37.14,2,.41.63.27,1.17.64,1.63,1.09.46.46.82,1,1.09,1.62.27.63.41,1.29.41,2v5.69h-2.85v-5.69c0-.32-.06-.61-.18-.89-.12-.27-.28-.51-.49-.72s-.45-.37-.72-.49c-.27-.12-.57-.18-.89-.18h-2.46c-.31,0-.6.06-.87.18-.28.12-.52.28-.73.49-.21.21-.37.45-.49.72-.12.27-.18.57-.18.89v5.69h-2.85v-5.69c0-.32-.06-.61-.18-.89-.12-.27-.28-.51-.49-.72-.21-.21-.45-.37-.72-.49-.27-.12-.57-.18-.89-.18h-2.48c-.31,0-.6.06-.87.18-.28.12-.52.28-.73.49-.21.21-.37.45-.49.72-.12.27-.18.57-.18.89v5.69h-2.85Z"/>
      <path class="st1" d="M90.6,42.52c.71,0,1.38.14,2,.41.63.27,1.17.64,1.62,1.09.46.46.82,1,1.09,1.62s.41,1.29.41,2v.56c0,.71-.14,1.38-.41,2-.27.62-.64,1.17-1.09,1.62-.46.46-1,.82-1.62,1.09-.62.27-1.29.41-2,.41h-4.02v-2.85h4.02c.32,0,.61-.06.89-.18.27-.12.51-.28.71-.49.2-.21.36-.45.49-.73.12-.28.19-.57.19-.87v-.56c0-.32-.06-.61-.19-.89-.13-.27-.29-.51-.49-.72-.2-.21-.44-.37-.71-.49-.27-.12-.57-.18-.89-.18h-5.31v11.71h-2.85v-14.56h8.17Z"/>
      <path class="st1" d="M98.64,42.52v-4.98h2.87v4.98h6.79v2.33h-6.79v3.35c0,.31.06.6.18.87.12.28.28.52.48.73.2.21.44.37.72.49.28.12.57.18.87.18h4.54v2.85h-4.54c-.71,0-1.37-.14-1.99-.41-.62-.27-1.16-.64-1.62-1.09-.47-.46-.83-1-1.1-1.62-.27-.63-.41-1.29-.41-2v-3.35h-1.15v-2.33h1.15Z"/>
    </g>
  </g>
  <g>
    <path class="st3" d="M132.63,53.57c-.47,0-.86-.38-.86-.86v-1.59h-8.93c-.47,0-.86-.38-.86-.86v-24.47c0-.47.38-.86.86-.86h6.48v-1.59c0-.47.38-.86.86-.86h1.59v-1.59c0-.47.38-.86.86-.86h1.59v-4.03c0-.47.38-.86.86-.86h1.59V3.78c0-.47.38-.86.86-.86h7.34c.47,0,.86.38.86.86v1.59h1.59c.47,0,.86.38.86.86v13.82h16.27c.47,0,.86.38.86.86v1.59h1.59c.47,0,.86.38.86.86v22.02c0,.47-.38.86-.86.86h-1.59v4.03c0,.47-.38.86-.86.86h-1.59v1.59c0,.47-.38.86-.86.86h-29.36Z"/>
    <rect class="st0" x="102.41" y="32.28" width="31.08" height="11.51" rx="4" ry="4" transform="translate(155.99 -79.92) rotate(90)"/>
    <g>
      <rect class="st2" x="122.84" y="47.82" width="2.45" height="2.45" rx="1.22" ry="1.22"/>
      <rect class="st2" x="125.29" y="47.82" width="2.45" height="2.45" rx="1.22" ry="1.22"/>
      <rect class="st2" x="127.74" y="47.82" width="2.45" height="2.45" rx="1.22" ry="1.22"/>
      <rect class="st2" x="127.74" y="45.37" width="2.45" height="2.45" rx="1.22" ry="1.22"/>
      <rect class="st2" x="130.18" y="47.82" width="2.45" height="2.45" rx="1.22" ry="1.22"/>
      <rect class="st2" x="132.63" y="50.27" width="2.45" height="2.45" rx="1.22" ry="1.22"/>
      <rect class="st2" x="135.08" y="50.27" width="2.45" height="2.45" rx="1.22" ry="1.22"/>
      <rect class="st2" x="137.52" y="50.27" width="2.45" height="2.45" rx="1.22" ry="1.22"/>
      <rect class="st2" x="139.97" y="50.27" width="2.45" height="2.45" rx="1.22" ry="1.22"/>
      <rect class="st2" x="142.42" y="50.27" width="2.45" height="2.45" rx="1.22" ry="1.22"/>
      <rect class="st2" x="144.86" y="50.27" width="2.45" height="2.45" rx="1.22" ry="1.22"/>
      <rect class="st2" x="147.31" y="50.27" width="2.45" height="2.45" rx="1.22" ry="1.22"/>
      <rect class="st2" x="147.31" y="47.82" width="2.45" height="2.45" rx="1.22" ry="1.22"/>
      <rect class="st2" x="147.31" y="45.37" width="2.45" height="2.45" rx="1.22" ry="1.22"/>
      <rect class="st2" x="147.31" y="40.48" width="2.45" height="2.45" rx="1.22" ry="1.22"/>
      <rect class="st2" x="147.31" y="38.03" width="2.45" height="2.45" rx="1.22" ry="1.22"/>
      <rect class="st2" x="147.31" y="35.59" width="2.45" height="2.45" rx="1.22" ry="1.22"/>
      <rect class="st2" x="147.31" y="33.14" width="2.45" height="2.45" rx="1.22" ry="1.22"/>
      <rect class="st2" x="144.86" y="35.59" width="2.45" height="2.45" rx="1.22" ry="1.22"/>
      <rect class="st2" x="144.86" y="33.14" width="2.45" height="2.45" rx="1.22" ry="1.22"/>
      <rect class="st2" x="142.42" y="38.03" width="2.45" height="2.45" rx="1.22" ry="1.22"/>
      <rect class="st2" x="142.42" y="35.59" width="2.45" height="2.45" rx="1.22" ry="1.22"/>
      <rect class="st2" x="139.97" y="40.48" width="2.45" height="2.45" rx="1.22" ry="1.22"/>
      <rect class="st2" x="137.52" y="40.48" width="2.45" height="2.45" rx="1.22" ry="1.22"/>
      <rect class="st2" x="135.08" y="40.48" width="2.45" height="2.45" rx="1.22" ry="1.22"/>
      <rect class="st2" x="132.63" y="40.48" width="2.45" height="2.45" rx="1.22" ry="1.22"/>
      <rect class="st2" x="139.97" y="38.03" width="2.45" height="2.45" rx="1.22" ry="1.22"/>
      <rect class="st2" x="147.31" y="30.69" width="2.45" height="2.45" rx="1.22" ry="1.22"/>
      <rect class="st2" x="147.31" y="28.25" width="2.45" height="2.45" rx="1.22" ry="1.22"/>
      <rect class="st2" x="147.31" y="25.8" width="2.45" height="2.45" rx="1.22" ry="1.22"/>
      <rect class="st2" x="147.31" y="23.35" width="2.45" height="2.45" rx="1.22" ry="1.22"/>
      <rect class="st2" x="147.31" y="20.91" width="2.45" height="2.45" rx="1.22" ry="1.22"/>
      <rect class="st2" x="144.86" y="20.91" width="2.45" height="2.45" rx="1.22" ry="1.22"/>
      <rect class="st2" x="144.86" y="18.46" width="2.45" height="2.45" rx="1.22" ry="1.22"/>
      <rect class="st2" x="144.86" y="16.02" width="2.45" height="2.45" rx="1.22" ry="1.22"/>
      <rect class="st2" x="144.86" y="13.57" width="2.45" height="2.45" rx="1.22" ry="1.22"/>
      <rect class="st2" x="144.86" y="11.12" width="2.45" height="2.45" rx="1.22" ry="1.22"/>
      <rect class="st2" x="144.86" y="8.68" width="2.45" height="2.45" rx="1.22" ry="1.22"/>
      <rect class="st2" x="144.86" y="6.23" width="2.45" height="2.45" rx="1.22" ry="1.22"/>
      <rect class="st2" x="142.42" y="3.78" width="2.45" height="2.45" rx="1.22" ry="1.22"/>
      <rect class="st2" x="139.97" y="3.78" width="2.45" height="2.45" rx="1.22" ry="1.22"/>
      <rect class="st2" x="137.52" y="3.78" width="2.45" height="2.45" rx="1.22" ry="1.22"/>
      <rect class="st2" x="137.52" y="6.23" width="2.45" height="2.45" rx="1.22" ry="1.22"/>
      <rect class="st2" x="137.52" y="8.68" width="2.45" height="2.45" rx="1.22" ry="1.22"/>
      <rect class="st2" x="137.52" y="11.12" width="2.45" height="2.45" rx="1.22" ry="1.22"/>
      <rect class="st2" x="137.52" y="13.57" width="2.45" height="2.45" rx="1.22" ry="1.22"/>
      <rect class="st2" x="135.08" y="16.02" width="2.45" height="2.45" rx="1.22" ry="1.22"/>
      <rect class="st2" x="135.08" y="18.46" width="2.45" height="2.45" rx="1.22" ry="1.22"/>
      <rect class="st2" x="132.63" y="20.91" width="2.45" height="2.45" rx="1.22" ry="1.22"/>
      <rect class="st2" x="130.18" y="23.35" width="2.45" height="2.45" rx="1.22" ry="1.22"/>
      <rect class="st2" x="127.74" y="25.8" width="2.45" height="2.45" rx="1.22" ry="1.22"/>
      <rect class="st2" x="125.29" y="25.8" width="2.45" height="2.45" rx="1.22" ry="1.22"/>
      <rect class="st2" x="122.84" y="25.8" width="2.45" height="2.45" rx="1.22" ry="1.22"/>
      <rect class="st2" x="120.4" y="23.35" width="2.45" height="2.45" rx="1.22" ry="1.22"/>
      <rect class="st2" x="117.95" y="23.35" width="2.45" height="2.45" rx="1.22" ry="1.22"/>
      <rect class="st2" x="115.5" y="23.35" width="2.45" height="2.45" rx="1.22" ry="1.22"/>
      <rect class="st2" x="117.95" y="50.27" width="2.45" height="2.45" rx="1.22" ry="1.22"/>
      <rect class="st2" x="115.5" y="50.27" width="2.45" height="2.45" rx="1.22" ry="1.22"/>
      <rect class="st2" x="113.06" y="23.35" width="2.45" height="2.45" rx="1.22" ry="1.22"/>
      <rect class="st2" x="120.4" y="25.8" width="2.45" height="2.45" rx="1.22" ry="1.22"/>
      <rect class="st2" x="120.4" y="28.25" width="2.45" height="2.45" rx="1.22" ry="1.22"/>
      <rect class="st2" x="120.4" y="30.69" width="2.45" height="2.45" rx="1.22" ry="1.22"/>
      <rect class="st2" x="120.4" y="33.14" width="2.45" height="2.45" rx="1.22" ry="1.22"/>
      <rect class="st2" x="120.4" y="35.59" width="2.45" height="2.45" rx="1.22" ry="1.22"/>
      <rect class="st2" x="120.4" y="38.03" width="2.45" height="2.45" rx="1.22" ry="1.22"/>
      <rect class="st2" x="120.4" y="40.48" width="2.45" height="2.45" rx="1.22" ry="1.22"/>
      <rect class="st2" x="120.4" y="42.93" width="2.45" height="2.45" rx="1.22" ry="1.22"/>
      <rect class="st2" x="120.4" y="45.37" width="2.45" height="2.45" rx="1.22" ry="1.22"/>
      <rect class="st2" x="120.4" y="47.82" width="2.45" height="2.45" rx="1.22" ry="1.22"/>
      <rect class="st2" x="120.4" y="50.27" width="2.45" height="2.45" rx="1.22" ry="1.22"/>
      <rect class="st2" x="113.06" y="25.8" width="2.45" height="2.45" rx="1.22" ry="1.22"/>
      <rect class="st2" x="113.06" y="28.25" width="2.45" height="2.45" rx="1.22" ry="1.22"/>
      <rect class="st2" x="113.06" y="30.69" width="2.45" height="2.45" rx="1.22" ry="1.22"/>
      <rect class="st2" x="113.06" y="33.14" width="2.45" height="2.45" rx="1.22" ry="1.22"/>
      <rect class="st2" x="113.06" y="35.59" width="2.45" height="2.45" rx="1.22" ry="1.22"/>
      <rect class="st2" x="113.06" y="38.03" width="2.45" height="2.45" rx="1.22" ry="1.22"/>
      <rect class="st2" x="113.06" y="40.48" width="2.45" height="2.45" rx="1.22" ry="1.22"/>
      <rect class="st2" x="113.06" y="42.93" width="2.45" height="2.45" rx="1.22" ry="1.22"/>
      <rect class="st2" x="113.06" y="45.37" width="2.45" height="2.45" rx="1.22" ry="1.22"/>
      <rect class="st2" x="113.06" y="47.82" width="2.45" height="2.45" rx="1.22" ry="1.22"/>
      <rect class="st2" x="113.06" y="50.27" width="2.45" height="2.45" rx="1.22" ry="1.22"/>
      <rect class="st2" x="149.76" y="20.91" width="2.45" height="2.45" rx="1.22" ry="1.22"/>
      <rect class="st2" x="152.2" y="20.91" width="2.45" height="2.45" rx="1.22" ry="1.22"/>
      <rect class="st2" x="154.65" y="20.91" width="2.45" height="2.45" rx="1.22" ry="1.22"/>
      <rect class="st2" x="157.1" y="20.91" width="2.45" height="2.45" rx="1.22" ry="1.22"/>
      <rect class="st2" x="159.54" y="20.91" width="2.45" height="2.45" rx="1.22" ry="1.22"/>
      <rect class="st2" x="161.99" y="20.91" width="2.45" height="2.45" rx="1.22" ry="1.22"/>
      <rect class="st2" x="149.76" y="28.25" width="2.45" height="2.45" rx="1.22" ry="1.22"/>
      <rect class="st2" x="152.2" y="28.25" width="2.45" height="2.45" rx="1.22" ry="1.22"/>
      <rect class="st2" x="154.65" y="28.25" width="2.45" height="2.45" rx="1.22" ry="1.22"/>
      <rect class="st2" x="157.1" y="28.25" width="2.45" height="2.45" rx="1.22" ry="1.22"/>
      <rect class="st2" x="159.54" y="28.25" width="2.45" height="2.45" rx="1.22" ry="1.22"/>
      <rect class="st2" x="161.99" y="28.25" width="2.45" height="2.45" rx="1.22" ry="1.22"/>
      <rect class="st2" x="149.76" y="35.59" width="2.45" height="2.45" rx="1.22" ry="1.22"/>
      <rect class="st2" x="152.2" y="35.59" width="2.45" height="2.45" rx="1.22" ry="1.22"/>
      <rect class="st2" x="154.65" y="35.59" width="2.45" height="2.45" rx="1.22" ry="1.22"/>
      <rect class="st2" x="157.1" y="35.59" width="2.45" height="2.45" rx="1.22" ry="1.22"/>
      <rect class="st2" x="159.54" y="35.59" width="2.45" height="2.45" rx="1.22" ry="1.22"/>
      <rect class="st2" x="161.99" y="35.59" width="2.45" height="2.45" rx="1.22" ry="1.22"/>
      <rect class="st2" x="149.76" y="42.93" width="2.45" height="2.45" rx="1.22" ry="1.22"/>
      <rect class="st2" x="152.2" y="42.93" width="2.45" height="2.45" rx="1.22" ry="1.22"/>
      <rect class="st2" x="154.65" y="42.93" width="2.45" height="2.45" rx="1.22" ry="1.22"/>
      <rect class="st2" x="157.1" y="42.93" width="2.45" height="2.45" rx="1.22" ry="1.22"/>
      <rect class="st2" x="159.54" y="42.93" width="2.45" height="2.45" rx="1.22" ry="1.22"/>
      <rect class="st2" x="161.99" y="42.93" width="2.45" height="2.45" rx="1.22" ry="1.22"/>
      <rect class="st2" x="164.44" y="42.93" width="2.45" height="2.45" rx="1.22" ry="1.22"/>
      <rect class="st2" x="164.44" y="40.48" width="2.45" height="2.45" rx="1.22" ry="1.22"/>
      <rect class="st2" x="164.44" y="38.03" width="2.45" height="2.45" rx="1.22" ry="1.22"/>
      <rect class="st2" x="164.44" y="35.59" width="2.45" height="2.45" rx="1.22" ry="1.22"/>
      <rect class="st2" x="164.44" y="33.14" width="2.45" height="2.45" rx="1.22" ry="1.22"/>
      <rect class="st2" x="164.44" y="30.69" width="2.45" height="2.45" rx="1.22" ry="1.22"/>
      <rect class="st2" x="164.44" y="28.25" width="2.45" height="2.45" rx="1.22" ry="1.22"/>
      <rect class="st2" x="164.44" y="25.8" width="2.45" height="2.45" rx="1.22" ry="1.22"/>
      <rect class="st2" x="164.44" y="23.35" width="2.45" height="2.45" rx="1.22" ry="1.22"/>
      <rect class="st2" x="149.76" y="50.27" width="2.45" height="2.45" rx="1.22" ry="1.22"/>
      <rect class="st2" x="152.2" y="50.27" width="2.45" height="2.45" rx="1.22" ry="1.22"/>
      <rect class="st2" x="154.65" y="50.27" width="2.45" height="2.45" rx="1.22" ry="1.22"/>
      <rect class="st2" x="157.1" y="50.27" width="2.45" height="2.45" rx="1.22" ry="1.22"/>
      <rect class="st2" x="159.54" y="50.27" width="2.45" height="2.45" rx="1.22" ry="1.22"/>
      <rect class="st2" x="161.99" y="47.82" width="2.45" height="2.45" rx="1.22" ry="1.22"/>
      <rect class="st2" x="161.99" y="45.37" width="2.45" height="2.45" rx="1.22" ry="1.22"/>
    </g>
  </g>
</svg>