<?xml version="1.0" encoding="UTF-8"?>
<svg id="Layer_1" xmlns="http://www.w3.org/2000/svg" version="1.1" viewBox="0 0 40 40">
  <!-- Generator: Adobe Illustrator 29.8.1, SVG Export Plug-In . SVG Version: 2.1.1 Build 2)  -->
  <defs>
    <style>
      .st0 {
        fill: #818385;
      }
    </style>
  </defs>
  <path class="st0" d="M20.44,34c-.18,0-.37,0-.55,0-7.44-.28-13.54-6.35-13.87-13.82-.28-6.13,3.33-11.8,8.98-14.11.3-.12.63-.06.87.15s.33.54.24.85c-.36,1.23-.55,2.5-.55,3.79,0,7.35,5.96,13.33,13.28,13.33,1.39,0,2.75-.21,4.05-.63.31-.1.64-.01.87.22s.29.58.18.89c-2.14,5.63-7.53,9.33-13.51,9.33ZM14.81,7.42c-4.84,2.28-7.88,7.29-7.64,12.7.31,6.87,5.91,12.44,12.75,12.7,5.48.21,10.5-2.96,12.68-7.96-1.22.33-2.48.49-3.76.49-7.97,0-14.45-6.51-14.45-14.5,0-1.17.14-2.32.41-3.44h0Z"/>
</svg>