<?xml version="1.0" encoding="UTF-8"?>
<svg id="Layer_1" xmlns="http://www.w3.org/2000/svg" version="1.1" viewBox="0 0 200 200">
  <!-- Generator: Adobe Illustrator 29.8.1, SVG Export Plug-In . SVG Version: 2.1.1 Build 2)  -->
  <defs>
    <style>
      .st0 {
        fill: #818385;
      }
    </style>
  </defs>
  <path class="st0" d="M116.87,32.28c21.15,20.97,22.83,51.84,7,76.53-.49.76-2.17,2.36-1.98,3.11l61.93,62.1c4.41,6.07-4.68,14.56-10.39,9.36l-61.28-61.35c-.25-.18-.49-.2-.79-.12-.61.16-5.18,3.7-6.37,4.4C58.49,153.71,2.49,109.73,17.48,57.76,29.94,14.55,84.87.55,116.87,32.28ZM69.86,23.56c-34.47,2.82-55.96,40.06-42.12,71.75,16.38,37.52,68.65,41.58,90.46,6.78,22.76-36.33-5.95-82-48.34-78.53Z"/>
  <path class="st0" d="M71.93,34.3c10.25-.74,20.74,2.75,28.62,9.26,1.66,1.37,7.12,6.61,7.44,8.5.53,3.09-2.4,5.2-5.08,3.69-2.02-2.04-3.64-4.41-5.8-6.32-8.9-7.85-21.46-10.37-32.8-6.82-2.7.85-7.39,4.33-9.23.72-2.24-4.38,4.47-6.27,7.57-7.23,2.95-.91,6.2-1.58,9.28-1.81h0Z"/>
</svg>