<?xml version="1.0" encoding="UTF-8"?>
<svg id="Layer_1" xmlns="http://www.w3.org/2000/svg" version="1.1" viewBox="0 0 40 40">
  <!-- Generator: Adobe Illustrator 29.8.1, SVG Export Plug-In . SVG Version: 2.1.1 Build 2)  -->
  <defs>
    <style>
      .st0 {
        fill: #fff;
      }
    </style>
  </defs>
  <path class="st0" d="M19.9,26.23c-3.55,0-6.44-2.89-6.44-6.44s2.89-6.44,6.44-6.44,6.44,2.89,6.44,6.44-2.89,6.44-6.44,6.44ZM19.9,14.31c-3.02,0-5.48,2.46-5.48,5.48s2.46,5.48,5.48,5.48,5.48-2.46,5.48-5.48-2.46-5.48-5.48-5.48Z"/>
  <path class="st0" d="M20,10.95c-.26,0-.48-.21-.48-.48v-4c0-.26.21-.48.48-.48s.48.21.48.48v4c0,.26-.21.48-.48.48Z"/>
  <path class="st0" d="M26.66,13.86c-.12,0-.25-.05-.34-.14-.19-.19-.18-.49,0-.67l2.94-2.91c.19-.19.49-.18.67,0,.19.19.18.49,0,.67l-2.94,2.91c-.09.09-.21.14-.34.14Z"/>
  <path class="st0" d="M33.52,20.58h0l-4.31-.03c-.26,0-.48-.22-.47-.48,0-.26.21-.47.48-.47h0l4.31.03c.26,0,.48.22.47.48,0,.26-.21.47-.48.47Z"/>
  <path class="st0" d="M29.45,30.15c-.13,0-.25-.05-.34-.14l-3.09-3.16c-.18-.19-.18-.49,0-.67.19-.18.49-.18.67,0l3.09,3.16c.18.19.18.49,0,.67-.09.09-.21.14-.33.14Z"/>
  <path class="st0" d="M19.79,34h0c-.26,0-.47-.22-.47-.49l.07-4.41c0-.26.22-.48.49-.47.26,0,.47.22.47.49l-.07,4.41c0,.26-.21.47-.48.47Z"/>
  <path class="st0" d="M10.25,29.85c-.13,0-.25-.05-.35-.14-.18-.19-.18-.49.01-.67l3.08-2.96c.19-.18.49-.18.67.01.18.19.18.49-.01.67l-3.08,2.96c-.09.09-.21.14-.33.14h0Z"/>
  <path class="st0" d="M10.57,20.25h0l-4.1-.1c-.26,0-.47-.22-.47-.49s.22-.47.49-.47l4.1.1c.26,0,.47.22.47.49s-.22.47-.48.47Z"/>
  <path class="st0" d="M13.44,13.55c-.13,0-.25-.05-.35-.15l-2.74-2.89c-.18-.19-.17-.49.02-.67.19-.18.49-.17.67.02l2.74,2.89c.18.19.17.49-.02.67-.09.09-.21.13-.33.13Z"/>
</svg>