<?xml version="1.0" encoding="UTF-8"?>
<svg id="Layer_1" xmlns="http://www.w3.org/2000/svg" version="1.1" viewBox="0 0 40 40">
  <!-- Generator: Adobe Illustrator 29.8.1, SVG Export Plug-In . SVG Version: 2.1.1 Build 2)  -->
  <defs>
    <style>
      .st0 {
        fill: #818385;
      }
    </style>
  </defs>
  <path class="st0" d="M29.53,10.61c6.89,6.97,4.01,18.89-5.23,22.01-10.35,3.49-20.21-6.19-17.03-16.59,2.93-9.58,15.2-12.56,22.26-5.41h0ZM19.2,7.86c-9.75.64-14.83,12.11-8.66,19.75,5.72,7.08,17.04,5.56,20.62-2.81s-2.92-17.54-11.96-16.95h0Z"/>
  <path class="st0" d="M27.6,27.36h-1.16v-3.43c0-.48-.41-1.29-.8-1.59-.33-.25-1.89-.77-2.28-.75-.09,0-1.02.5-1.28.59-1.64.57-3.09.45-4.68-.2-.64-.26-.45-.44-1.23-.29-.86.17-1.95.49-2.35,1.33-.06.13-.25.73-.25.84v3.51h-1.16v-3.87c0-1,1.1-2.13,1.98-2.51.49-.21,2.05-.67,2.54-.64.14,0,1.16.65,1.54.77,1.13.35,2.33.3,3.43-.14.29-.12,1-.62,1.18-.63.68-.05,2.72.62,3.28,1.05s1.24,1.53,1.24,2.24c0,0,0,3.72,0,3.72Z"/>
  <path class="st0" d="M19.34,11.69c6.24-.78,6.64,8.62.7,8.66-5.4.04-5.84-8.02-.7-8.66ZM19.63,12.84c-3.98.5-3.49,6.63.7,6.27,4.09-.35,3.43-6.79-.7-6.27Z"/>
</svg>